<?xml version="1.0" standalone="no"?>
<!DOCTYPE svg PUBLIC "-//W3C//DTD SVG 20010904//EN"
 "http://www.w3.org/TR/2001/REC-SVG-20010904/DTD/svg10.dtd">
<svg version="1.0" xmlns="http://www.w3.org/2000/svg"
 width="3840.000000pt" height="2160.000000pt" viewBox="0 0 3840.000000 2160.000000"
 preserveAspectRatio="xMidYMid meet">

<g transform="translate(0.000000,2160.000000) scale(0.100000,-0.100000)"
fill="#000000" stroke="none">
<path d="M32980 13914 c-257 -15 -294 -22 -340 -60 -41 -35 -51 -57 -93 -204
-36 -125 -85 -291 -150 -515 -255 -866 -707 -2450 -779 -2725 -10 -41 -43
-163 -73 -270 -29 -107 -81 -298 -114 -424 -34 -127 -68 -240 -77 -253 -41
-64 -230 -184 -379 -242 -177 -69 -265 -86 -465 -86 -200 0 -220 6 -274 83
-28 40 -30 47 -42 234 -15 224 -25 287 -66 457 -38 158 -67 239 -135 376 -170
341 -415 549 -748 636 -101 26 -307 36 -426 20 -234 -31 -489 -129 -713 -275
-76 -49 -83 -51 -147 -51 -53 0 -74 5 -95 21 -53 39 -84 88 -90 140 -6 56 -7
53 506 1689 71 226 152 482 180 570 28 88 67 209 85 268 19 60 35 128 35 152
0 81 -41 143 -117 177 -42 19 -50 19 -326 3 -387 -22 -462 -29 -491 -48 -50
-33 -78 -85 -112 -209 -19 -68 -50 -177 -69 -243 -64 -219 -187 -650 -195
-680 -4 -16 -40 -142 -80 -280 -40 -137 -76 -263 -80 -280 -10 -40 -171 -607
-216 -760 -82 -284 -322 -1165 -449 -1646 -35 -135 -68 -257 -74 -270 -27 -73
-241 -220 -426 -292 -151 -60 -275 -82 -460 -82 -184 0 -218 10 -269 82 -27
39 -29 48 -41 225 -23 307 -57 485 -131 686 -121 326 -333 581 -589 709 -91
46 -197 82 -292 98 -112 20 -305 19 -424 -1 -199 -34 -471 -145 -659 -269 -71
-47 -78 -50 -142 -50 -59 0 -71 3 -105 31 -45 36 -83 105 -83 152 0 18 84 302
186 630 221 711 454 1451 574 1827 42 133 51 170 48 217 -5 74 -40 128 -104
158 l-47 23 -361 -21 c-199 -11 -374 -26 -391 -32 -38 -14 -91 -65 -104 -99
-12 -33 -26 -81 -357 -1241 -280 -984 -358 -1259 -399 -1410 -13 -47 -64 -231
-113 -410 -49 -179 -111 -404 -137 -500 -25 -96 -57 -215 -71 -265 -13 -49
-45 -168 -70 -264 -25 -96 -52 -187 -59 -202 -28 -52 -181 -167 -310 -232
-185 -92 -354 -131 -575 -132 -173 0 -192 5 -248 69 -41 47 -47 77 -61 287
-21 321 -71 531 -182 768 -117 249 -299 452 -509 568 -385 212 -898 156 -1380
-150 -89 -57 -99 -61 -157 -61 -52 -1 -67 3 -104 29 -55 39 -84 95 -84 160 1
35 33 154 109 395 59 190 166 532 238 760 201 644 283 903 374 1187 88 276 97
323 69 391 -21 48 -47 75 -96 97 -38 18 -53 18 -387 1 -191 -10 -365 -23 -387
-28 -58 -15 -119 -80 -139 -148 -8 -30 -83 -293 -166 -585 -84 -291 -178 -624
-211 -740 -33 -115 -70 -246 -83 -290 -43 -144 -276 -973 -420 -1495 -166
-601 -405 -1524 -461 -1784 -27 -126 -55 -188 -193 -436 -155 -277 -331 -551
-479 -745 -265 -346 -515 -569 -729 -651 -54 -21 -88 -27 -155 -28 -79 -1 -89
1 -135 29 -146 91 -183 318 -125 757 64 475 213 1042 657 2498 130 427 127
416 120 465 -9 60 -57 122 -113 147 -43 19 -54 19 -217 9 -94 -6 -254 -16
-354 -21 -199 -11 -239 -22 -280 -75 -28 -35 -37 -62 -146 -430 -232 -784
-374 -1303 -471 -1719 -19 -82 -41 -161 -48 -175 -269 -528 -616 -1032 -916
-1331 -211 -211 -363 -300 -510 -300 -200 0 -301 147 -301 438 0 421 244 1275
755 2647 131 352 138 372 130 419 -9 57 -41 109 -86 138 l-40 26 -607 5 c-591
5 -728 11 -1016 43 -142 16 -174 25 -214 59 -47 40 -62 86 -62 191 0 109 -13
147 -66 193 -18 17 -51 33 -71 37 -43 8 -506 -12 -597 -26 -111 -17 -153 -72
-181 -235 -63 -376 -218 -1020 -335 -1390 -10 -33 -33 -107 -50 -165 -297
-974 -774 -2077 -1202 -2782 -97 -160 -107 -206 -65 -288 18 -37 53 -68 192
-173 94 -70 204 -150 245 -178 73 -50 76 -51 137 -47 102 6 120 26 288 318
498 863 1010 2103 1359 3292 61 208 72 235 114 270 61 51 80 53 236 30 175
-27 293 -40 464 -51 158 -11 193 -25 237 -96 48 -77 43 -113 -54 -370 -380
-1006 -521 -1546 -538 -2050 -15 -443 88 -754 327 -994 161 -161 333 -242 575
-272 342 -42 704 96 1067 408 88 76 310 299 368 371 63 77 160 103 238 63 54
-28 70 -49 113 -157 113 -283 294 -443 581 -515 121 -30 371 -37 509 -14 183
30 369 107 552 229 258 170 493 400 763 745 108 139 137 161 209 161 104 0
143 -33 210 -175 125 -267 355 -506 615 -639 532 -272 1176 -221 1728 137 57
37 108 71 115 77 7 5 47 37 90 71 92 72 277 253 369 359 310 359 567 822 747
1345 35 100 72 191 84 204 49 53 86 61 289 61 195 0 340 18 497 61 123 33 182
25 239 -34 52 -54 55 -72 53 -312 -4 -444 54 -749 199 -1050 242 -503 739
-804 1327 -805 363 0 706 110 1043 334 416 278 769 703 1057 1271 91 180 190
424 258 635 30 95 60 142 108 167 27 14 63 17 222 18 212 2 305 13 477 56 64
16 133 29 153 29 39 0 101 -27 126 -56 44 -50 46 -67 52 -379 3 -208 10 -332
22 -405 101 -641 406 -1066 911 -1269 192 -77 375 -111 600 -111 662 0 1278
377 1787 1092 214 301 437 755 557 1134 56 179 97 205 301 197 143 -6 278 6
462 43 109 22 136 25 168 15 78 -23 138 -103 139 -183 0 -21 -9 -93 -20 -160
-42 -264 -54 -416 -54 -693 -1 -312 12 -418 73 -600 100 -302 278 -471 576
-546 116 -30 395 -37 525 -15 423 74 835 376 1284 941 48 61 102 120 119 132
60 44 161 39 216 -11 13 -11 45 -52 71 -91 284 -416 719 -676 1275 -760 345
-52 796 -13 1170 101 335 102 678 276 975 493 246 181 592 523 689 681 16 26
21 51 21 100 0 74 -4 82 -108 224 -38 50 -102 137 -143 192 -85 117 -120 145
-189 152 -67 6 -123 -23 -186 -95 -218 -254 -515 -511 -784 -681 -217 -136
-443 -226 -660 -263 -96 -16 -381 -16 -485 0 -110 17 -251 56 -329 90 -187 84
-343 236 -427 415 -39 84 -37 145 7 209 54 76 66 79 317 82 384 5 653 57 997
195 487 195 899 563 1100 985 288 605 202 1302 -214 1742 -335 354 -822 472
-1401 339 -243 -56 -516 -181 -735 -336 -163 -116 -367 -313 -506 -487 -207
-260 -404 -629 -514 -964 -108 -326 -163 -615 -189 -986 l-9 -121 -67 -111
c-135 -225 -339 -514 -459 -650 -142 -162 -213 -232 -328 -324 -188 -152 -367
-218 -508 -188 -148 31 -201 127 -202 363 0 189 30 396 113 773 100 451 354
1404 671 2515 38 135 72 254 75 265 7 24 133 466 208 725 127 440 148 513 189
650 24 80 63 210 86 290 23 80 98 331 166 559 129 432 141 490 110 549 -16 31
-61 74 -93 91 -28 14 -197 12 -503 -5z m2949 -3454 c177 -29 309 -165 357
-366 20 -85 14 -288 -11 -379 -21 -77 -91 -224 -141 -296 -203 -295 -590 -526
-1027 -614 -132 -27 -333 -43 -381 -31 -45 11 -103 72 -122 128 -20 61 -13
116 43 318 159 586 506 1047 895 1189 148 54 267 70 387 51z m-7214 -474 c215
-57 362 -232 423 -505 21 -94 23 -457 4 -596 -122 -871 -591 -1697 -1107
-1950 -132 -65 -236 -89 -355 -82 -246 14 -408 149 -498 413 -43 125 -56 228
-56 434 0 245 38 506 113 790 131 491 383 940 682 1213 161 147 354 254 520
286 69 14 219 12 274 -3z m-4988 -297 c184 -60 324 -227 383 -459 34 -133 39
-403 11 -625 -118 -928 -657 -1819 -1212 -2003 -173 -57 -317 -53 -455 13
-292 140 -408 553 -323 1150 96 676 363 1257 743 1623 197 188 399 294 621
326 55 8 169 -5 232 -25z m-4992 -298 c172 -67 295 -222 357 -451 21 -78 23
-105 22 -335 0 -211 -4 -270 -22 -380 -80 -462 -236 -879 -466 -1240 -261
-411 -575 -664 -875 -705 -247 -34 -453 80 -564 311 -86 178 -118 401 -98 675
52 694 326 1385 704 1773 201 207 380 319 587 370 121 29 251 23 355 -18z"/>
<path d="M4345 13224 c-671 -54 -1351 -242 -1960 -544 -244 -121 -320 -165
-528 -302 -322 -212 -387 -275 -387 -374 0 -56 10 -81 74 -184 29 -47 111
-179 181 -295 70 -115 139 -223 154 -238 39 -43 79 -60 139 -59 60 0 58 -1
234 133 435 331 935 571 1468 705 331 84 589 117 905 116 408 0 739 -64 1085
-207 470 -195 894 -590 1143 -1065 204 -388 305 -740 369 -1285 17 -148 17
-800 0 -950 -88 -748 -273 -1374 -587 -1980 -464 -895 -1121 -1565 -1910
-1950 -477 -233 -997 -355 -1510 -355 -98 0 -117 3 -156 23 -50 27 -84 71
-100 131 -11 38 -4 72 90 446 56 223 119 473 140 555 21 83 65 251 96 375 32
124 81 315 110 425 29 110 67 254 85 320 69 264 203 768 240 900 21 77 48 176
60 220 44 168 395 1423 487 1740 118 410 187 645 220 755 67 217 52 305 -64
364 -42 21 -111 21 -510 -4 -349 -21 -362 -24 -416 -83 -30 -34 -27 -26 -157
-482 -50 -176 -99 -349 -110 -385 -10 -36 -47 -164 -80 -285 -148 -534 -272
-983 -315 -1140 -25 -93 -68 -251 -95 -350 -65 -237 -183 -678 -225 -835 -18
-69 -54 -206 -80 -305 -113 -426 -264 -1002 -316 -1205 -22 -85 -63 -243 -90
-350 -28 -107 -64 -247 -80 -310 -17 -63 -35 -132 -40 -153 -5 -20 -24 -53
-41 -73 -84 -96 -148 -89 -488 51 -113 46 -306 139 -365 175 -73 45 -176 40
-232 -11 -14 -13 -62 -98 -106 -189 -44 -91 -118 -244 -165 -340 -72 -148 -86
-185 -90 -237 -9 -125 21 -159 229 -263 484 -243 1069 -398 1759 -467 244 -24
845 -24 1080 0 1113 116 2020 495 2830 1182 240 204 559 544 774 824 550 718
962 1656 1141 2596 76 400 104 668 112 1065 10 523 -31 927 -138 1360 -144
584 -385 1087 -725 1515 -115 143 -401 428 -534 531 -536 414 -1095 639 -1818
730 -112 14 -673 27 -787 18z"/>
<path d="M15020 12274 c-340 -91 -618 -461 -646 -860 -28 -396 199 -662 546
-641 147 9 260 54 391 153 307 234 474 708 358 1020 -61 163 -194 288 -353
330 -66 18 -226 17 -296 -2z"/>
</g>
</svg>
